<?xml version="1.0" encoding="UTF-8"?>
<svg width="200" height="200" viewBox="0 0 1000 1000" xmlns="http://www.w3.org/2000/svg">
  <g transform="translate(0, 50)"> <!-- Shift everything down slightly to center vertically -->
    <!-- Face outline -->
    <circle cx="500" cy="450" r="450" fill="#6B7280"/>
    <!-- Hair -->
    <path d="M200,250 Q350,150 500,100 Q650,150 800,250 L800,50 Q650,0 500,0 Q350,0 200,50 Z" fill="#6B7280"/>
    <!-- Ears -->
    <path d="M50,400 Q30,450 50,500 Q70,550 100,500 Z" fill="#6B7280"/>
    <path d="M950,400 Q970,450 950,500 Q930,550 900,500 Z" fill="#6B7280"/>
    <!-- Eyes -->
    <g class="eyes">
      <path d="M350,400 L400,400" stroke="#FFFFFF" stroke-width="20" stroke-linecap="round"/>
      <path d="M600,400 L650,400" stroke="#FFFFFF" stroke-width="20" stroke-linecap="round"/>
    </g>
    <!-- Mouth -->
    <path d="M400,550 Q500,650 600,550" fill="none" stroke="#FFFFFF" stroke-width="20" stroke-linecap="round"/>
    <!-- Chin dot -->
    <circle cx="500" cy="700" r="10" fill="#FFFFFF"/>
  </g>
</svg> 